#!OML:ASF F:\VICON\USERDATA\INSTALL\rory3\rory3.ASF
:FULLY-SPECIFIED
:DEGREES
4306
root -2.77263 10.1845 1.17311 5.93559 3.22037 4.07758
lowerback 40.268 -0.383874 -2.0671
upperback 8.12208 -1.25267 -0.0234833
thorax -10.3627 -0.507932 1.5739
lowerneck -14.3765 -1.62341 -5.84432
upperneck -8.83878 -1.17067 5.27711
head -0.31137 -0.378474 2.67106
rclavicle -1.39149e-015 7.95139e-015
rhumerus 22.5397 -18.7038 -60.2563
rradius 98.5198
rwrist -26.7487
rhand -14.7859 10.0172
rfingers 7.12502
rthumb 11.3713 -19.6544
lclavicle -1.39149e-015 7.95139e-015
lhumerus 17.2473 6.2636 49.0491
lradius 79.0546
lwrist 30.167
lhand -26.5664 12.5072
lfingers 7.12502
lthumb -0.00131355 42.4869
rfemur -93.8626 -30.8522 16.5866
rtibia 129.175
rfoot -36.971 -7.09708
rtoes -5.58809
lfemur -91.3204 1.32777 -24.4078
ltibia 125.796
lfoot -34.5583 15.6101
ltoes -13.6124
4307
root -2.77228 10.1034 1.16012 5.87504 3.15405 3.93408
lowerback 40.507 -0.373671 -2.04204
upperback 8.11713 -1.23121 0.0115158
thorax -10.4458 -0.498027 1.59142
lowerneck -14.4999 -1.63753 -5.91904
upperneck -8.84922 -1.17066 5.32875
head -0.293399 -0.374323 2.70283
rclavicle -3.97569e-015 -7.35503e-015
rhumerus 23.0382 -19.0374 -60.1874
rradius 98.3549
rwrist -26.9264
rhand -14.9995 9.81415
rfingers 7.12502
rthumb 11.1652 -19.8688
lclavicle -3.97569e-015 -7.35503e-015
lhumerus 17.4746 6.33661 48.7408
lradius 79.0424
lwrist 29.1009
lhand -26.7106 12.5249
lfingers 7.12502
lthumb -0.140564 42.5046
rfemur -94.5033 -30.9056 16.8701
rtibia 129.735
rfoot -36.9577 -7.13343
rtoes -5.50348
lfemur -91.9435 1.47504 -24.3117
ltibia 126.421
lfoot -34.5073 15.8158
ltoes -14.0118
4308
root -2.77297 10.0257 1.14284 5.71959 3.18233 3.88265
lowerback 40.9336 -0.403373 -2.07019
upperback 8.10044 -1.28828 0.00372868
thorax -10.5981 -0.520149 1.62526
lowerneck -14.5982 -1.61209 -5.90475
upperneck -8.90214 -1.13125 5.35147
head -0.296931 -0.353285 2.70992
rclavicle -1.27222e-014 2.5842e-015
rhumerus 23.5569 -19.3238 -60.1883
rradius 98.2542
rwrist -27.0168
rhand -15.2566 9.93031
rfingers 7.12502
rthumb 10.9172 -19.7659
lclavicle -1.27222e-014 2.5842e-015
lhumerus 17.637 6.44398 48.3236
lradius 79.1085
lwrist 28.2417
lhand -26.5494 12.417
lfingers 7.12502
lthumb 0.0151403 42.3967
rfemur -95.0348 -31.0442 17.0541
rtibia 130.232
rfoot -36.7472 -7.28169
rtoes -5.4725
lfemur -92.3863 1.47586 -24.2967
ltibia 127.006
lfoot -34.523 16.0853
ltoes -14.5109
4309
root -2.77058 9.94719 1.12709 5.60786 3.28745 3.85713
lowerback 41.334 -0.479136 -2.03209
upperback 8.0571 -1.37408 -0.00967548
thorax -10.7717 -0.555253 1.63148
lowerneck -14.6914 -1.56078 -5.82836
upperneck -8.95329 -1.06868 5.29344
head -0.303586 -0.323033 2.67882
rclavicle 8.44835e-015 -2.0276e-014
rhumerus 23.9967 -19.6701 -60.0892
rradius 98.1959
rwrist -27.2584
rhand -15.2859 10.1316
rfingers 7.12502
rthumb 10.889 -19.566
lclavicle 8.44835e-015 -2.0276e-014
lhumerus 17.7594 6.55164 47.9354
lradius 79.2369
lwrist 27.4717
lhand -26.4033 12.3123
lfingers 7.12502
lthumb 0.156273 42.292
rfemur -95.6231 -31.3273 17.2417
rtibia 130.693
rfoot -36.433 -7.33005
rtoes -5.24676
lfemur -92.8804 1.33882 -24.3118
ltibia 127.587
lfoot -34.5145 16.2329
ltoes -14.5209
4310
root -2.77125 9.86187 1.10891 5.52746 3.45984 3.76555
lowerback 41.7089 -0.575237 -1.90751
upperback 7.98681 -1.44249 0.0121541
thorax -10.9692 -0.583798 1.62421
lowerneck -14.6925 -1.55149 -5.84491
upperneck -9.03555 -1.0502 5.33193
head -0.33097 -0.312607 2.69608
rclavicle -1.13307e-014 5.96354e-016
rhumerus 24.3155 -20.1252 -59.9047
rradius 98.1776
rwrist -27.7727
rhand -15.2813 10.5537
rfingers 7.12502
rthumb 10.8934 -19.1437
lclavicle -1.13307e-014 5.96354e-016
lhumerus 17.9412 6.54822 47.5728
lradius 79.3317
lwrist 26.9541
lhand -26.5944 12.2926
lfingers 7.12502
lthumb -0.0283659 42.2723
rfemur -96.3485 -31.7172 17.5791
rtibia 131.222
rfoot -36.2511 -7.35794
rtoes -4.93015
lfemur -93.5563 1.23623 -24.2627
ltibia 128.195
lfoot -34.3657 16.2658
ltoes -14.4423
4311
root -2.76945 9.77278 1.10265 5.38558 3.39092 3.70757
lowerback 41.9005 -0.547771 -1.91664
upperback 8.0194 -1.41659 0.01082
thorax -10.9918 -0.571973 1.61744
lowerneck -14.6929 -1.57523 -5.77999
upperneck -9.14574 -1.09108 5.2623
head -0.366135 -0.335618 2.6584
rclavicle 1.23246e-014 -2.68359e-015
rhumerus 24.593 -20.552 -59.6594
rradius 98.1377
rwrist -28.1145
rhand -15.5125 10.9218
rfingers 7.12502
rthumb 10.6704 -18.7873
lclavicle 1.23246e-014 -2.68359e-015
lhumerus 18.1415 6.5322 47.15
lradius 79.4502
lwrist 26.8303
lhand -26.9512 12.226
lfingers 7.12502
lthumb -0.372996 42.2054
rfemur -97.0575 -32.0648 17.7923
rtibia 131.92
rfoot -36.4168 -7.15734
rtoes -4.53678
lfemur -94.0693 1.40518 -24.302
ltibia 128.863
lfoot -34.4301 16.2596
ltoes -14.1847
4312
root -2.75402 9.68621 1.09824 5.21432 3.14764 3.6879
lowerback 42.0898 -0.519612 -1.82277
upperback 8.06215 -1.35974 -0.0726521
thorax -11.0069 -0.548244 1.45496
lowerneck -14.7583 -1.60921 -5.75204
upperneck -9.14464 -1.13984 5.19059
head -0.353448 -0.360893 2.62647
rclavicle 1.71949e-014 -1.68967e-015
rhumerus 24.829 -20.9472 -59.3644
rradius 98.1651
rwrist -28.334
rhand -15.6469 10.6771
rfingers 7.12502
rthumb 10.5408 -19.0386
lclavicle 1.71949e-014 -1.68967e-015
lhumerus 18.2734 6.51051 46.8154
lradius 79.6445
lwrist 26.6589
lhand -27.32 12.1052
lfingers 7.12502
lthumb -0.729127 42.0837
rfemur -97.7614 -32.3246 17.8381
rtibia 132.673
rfoot -36.6668 -6.77284
rtoes -4.32226
lfemur -94.5079 1.67983 -24.4391
ltibia 129.551
lfoot -34.6294 16.2742
ltoes -13.5598
4313
root -2.75254 9.60383 1.08687 4.98571 3.16368 3.55895
lowerback 42.4525 -0.545545 -1.69992
upperback 8.07924 -1.34291 -0.0603431
thorax -11.1009 -0.541569 1.39996
lowerneck -14.9458 -1.6185 -5.75392
upperneck -9.02841 -1.14527 5.18008
head -0.284544 -0.361537 2.62295
rclavicle 5.76476e-015 7.7526e-015
rhumerus 25.3016 -21.4044 -59.2377
rradius 98.2029
rwrist -28.4628
rhand -15.6393 10.5398
rfingers 7.12502
rthumb 10.5481 -19.1755
lclavicle 5.76476e-015 7.7526e-015
lhumerus 18.4628 6.52644 46.4738
lradius 79.7616
lwrist 26.5367
lhand -27.6339 12.1531
lfingers 7.12502
lthumb -1.03228 42.1304
rfemur -98.2907 -32.6045 18.0941
rtibia 133.293
rfoot -36.7619 -6.82547
rtoes -4.62512
lfemur -94.964 1.83164 -24.4014
ltibia 130.197
lfoot -34.6133 16.3315
ltoes -13.4141
4314
root -2.7519 9.52203 1.07569 4.81761 3.23184 3.49937
lowerback 42.7629 -0.592353 -1.69119
upperback 8.10035 -1.39783 -0.0485008
thorax -11.1684 -0.56485 1.4345
lowerneck -15.0962 -1.57528 -5.74294
upperneck -9.04776 -1.07941 5.20868
head -0.26998 -0.326337 2.63402
rclavicle 8.94531e-015 -6.16232e-015
rhumerus 25.9581 -21.8079 -59.2775
rradius 98.2478
rwrist -28.6298
rhand -15.5699 10.7147
rfingers 7.12502
rthumb 10.615 -18.9972
lclavicle 8.94531e-015 -6.16232e-015
lhumerus 18.6487 6.67432 46.0665
lradius 79.7997
lwrist 26.519
lhand -27.894 12.1523
lfingers 7.12502
lthumb -1.28353 42.1282
rfemur -98.8895 -32.9629 18.3541
rtibia 133.845
rfoot -36.6258 -6.91405
rtoes -4.83209
lfemur -95.4988 1.86187 -24.4455
ltibia 130.819
lfoot -34.4523 16.5665
ltoes -14.0544
